<svg width="14" height="14" viewBox="0 0 14 14" fill="none" xmlns="http://www.w3.org/2000/svg">
<g opacity="0.4" clip-path="url(#clip0)">
<path d="M7.00001 4.74695C5.75694 4.74695 4.74695 5.75694 4.74695 7C4.74695 8.24306 5.75694 9.25305 7.00001 9.25305C8.24307 9.25305 9.25306 8.24306 9.25306 7C9.25306 5.75694 8.24307 4.74695 7.00001 4.74695ZM6.82908 6.33185C6.54939 6.33185 6.31632 6.56493 6.31632 6.84462H5.57048C5.58602 6.14539 6.1454 5.58602 6.82908 5.58602V6.33185Z" fill="#1B1B1B"/>
<path d="M13.8368 6.53385C13.0755 5.58602 10.3563 2.4939 7 2.4939C3.64373 2.4939 0.924528 5.58602 0.163152 6.53385C-0.054384 6.79801 -0.054384 7.18646 0.163152 7.46615C0.924528 8.41399 3.64373 11.5061 7 11.5061C10.3563 11.5061 13.0755 8.41399 13.8368 7.46615C14.0544 7.202 14.0544 6.81354 13.8368 6.53385ZM7 10.263C5.19756 10.263 3.73696 8.80245 3.73696 7C3.73696 5.19756 5.19756 3.73696 7 3.73696C8.80244 3.73696 10.263 5.19756 10.263 7C10.263 8.80245 8.80244 10.263 7 10.263Z" fill="#1B1B1B"/>
</g>
<defs>
<clipPath id="clip0">
<rect width="14" height="14" fill="white"/>
</clipPath>
</defs>
</svg>
